<?xml version="1.0" encoding="iso-8859-1"?>
<!-- Generator: Adobe Illustrator 21.0.2, SVG Export Plug-In . SVG Version: 6.00 Build 0)  -->
<svg xmlns="http://www.w3.org/2000/svg" xmlns:xlink="http://www.w3.org/1999/xlink" version="1.1" id="Layer_1" x="0px" y="0px" viewBox="0 0 40 40" style="enable-background:new 0 0 40 40;" xml:space="preserve" width="50px" height="50px">
<g>
	<path style="fill:#98CCFD;" d="M6,37.5c-1.93,0-3.5-1.57-3.5-3.5V7c0-1.93,1.57-3.5,3.5-3.5h27c1.93,0,3.5,1.57,3.5,3.5v27   c0,1.93-1.57,3.5-3.5,3.5H6z"/>
	<path style="fill:#4788C7;" d="M33,4c1.654,0,3,1.346,3,3v27c0,1.654-1.346,3-3,3H6c-1.654,0-3-1.346-3-3V7c0-1.654,1.346-3,3-3H33    M33,3H6C3.791,3,2,4.791,2,7v27c0,2.209,1.791,4,4,4h27c2.209,0,4-1.791,4-4V7C37,4.791,35.209,3,33,3L33,3z"/>
</g>
<path style="fill:#4788C7;" d="M37,7c0-1.834-1.241-3.363-2.924-3.835l-8.607,9.389l-4.261-4.261l-0.655-0.655l-0.703,0.603l-3.5,3  l-0.845,0.724l0.811,0.763l8.5,8l0.706,0.665l0.686-0.686L37,9.914V7z"/>
<g>
	<path style="fill:#FFFFFF;" d="M12.636,31.19c0-0.479-0.174-0.854-0.522-1.122c-0.348-0.269-0.96-0.546-1.835-0.833   c-0.875-0.288-1.591-0.564-2.147-0.833c-1.807-0.867-2.711-2.059-2.711-3.575c0-0.755,0.225-1.42,0.676-1.998   s1.087-1.027,1.911-1.347C8.832,21.161,9.758,21,10.787,21c1.002,0,1.902,0.175,2.697,0.524c0.796,0.349,1.413,0.847,1.854,1.492   C15.779,23.662,16,24.171,16,25h-3.354c0-0.555-0.174-0.756-0.522-1.062s-0.819-0.458-1.413-0.458c-0.6,0-1.074,0.129-1.423,0.388   c-0.348,0.26-0.522,0.588-0.522,0.987c0,0.35,0.192,0.667,0.575,0.949c0.383,0.284,1.057,0.578,2.022,0.881   c0.964,0.302,1.757,0.629,2.376,0.978C15.247,28.512,16,29.682,16,31.173c0,1.19-0.46,2.127-1.379,2.807   C13.699,34.66,12.438,35,10.835,35c-1.13,0-2.154-0.199-3.071-0.594c-0.916-0.396-1.606-0.939-2.069-1.629S5,30.898,5,30h3.372   c0,0.73,0.194,1.665,0.579,2.01c0.386,0.347,1.015,0.52,1.883,0.52c0.555,0,0.995-0.116,1.318-0.351   C12.475,31.945,12.636,31.614,12.636,31.19z"/>
</g>
<path style="fill:#FFFFFF;" d="M21.399,35c-1.311,0-2.373-0.397-3.183-1.192C17.406,33.015,17,31.982,17,30.71v-0.225  c0-0.888,0.161-1.67,0.485-2.35c0.324-0.68,0.796-1.205,1.418-1.577C19.523,26.186,20.26,26,21.114,26  c1.201,0,2.148,0.379,2.844,1.135C24.652,27.892,25,28.946,25,30.299V31h-5.5c0.095,0.486,0.367,1.202,0.688,1.479  C20.507,32.758,20.99,33,21.5,33c0.841,0,1.58-0.385,2.055-0.985l1.217,1.461c-0.332,0.466-0.802,0.836-1.41,1.111  C22.754,34.862,22.1,35,21.399,35z M21,28c-0.779,0-1.5,0.521-1.5,1.5h3l0,0c0.011-0.433-0.203-0.82-0.429-1.057  C21.845,28.205,21.422,28,21,28z"/>
<g>
	<polygon style="fill:#DFF0FE;" points="17,12 20.5,9 25.5,14 36.5,2 39,6.5 25.5,20  "/>
</g>
</svg>
